<svg width="384" height="375" viewBox="0 0 384 375" fill="none" xmlns="http://www.w3.org/2000/svg">
<path d="M90.3317 249.229L91.2269 249.677L92.5695 250.572L93.4646 251.914L94.3597 252.809L94.8073 254.152L95.2548 255.495L95.7024 256.39L96.1499 257.285L96.5975 257.733L97.045 259.075L97.9402 259.97L98.3877 260.865L98.8353 261.761L99.2828 262.656L100.178 263.998L101.073 264.893L101.521 265.789L101.968 266.684L102.863 267.579L103.758 268.474L104.654 269.369L105.996 270.264L107.339 271.159L108.682 272.054L110.024 272.95L111.367 273.397L113.605 273.845L114.947 274.74L116.29 275.187L118.528 275.635L119.87 276.082H121.213L123.003 276.53H123.898L125.241 276.978L126.584 276.53L127.479 276.978L128.822 276.53H129.269L130.612 276.978H131.954H132.85H134.64L136.43 277.873L136.878 278.32L137.325 279.215L138.22 279.663L139.116 280.11L139.563 280.558H140.458V281.006L141.353 281.453L141.801 281.901H142.248L143.144 282.796M90.3317 249.229H88.989H87.6464H86.7513H85.4086H83.6184C83.1708 249.229 82.1861 249.229 81.8281 249.229C81.3805 249.229 80.4855 249.229 79.5904 249.229C78.8743 249.229 78.0985 249.229 77.8002 249.229C77.0542 249.229 75.4729 249.229 75.1148 249.229C74.6673 249.229 74.2197 249.229 73.7721 249.229C73.4141 249.229 72.4295 249.229 71.9819 249.229H70.1917L69.2965 249.677L67.9539 250.124L66.6112 250.572H65.7161C65.5669 250.422 65.179 250.214 64.821 250.572C64.4629 250.93 63.7766 251.318 63.4782 251.467H62.5831L61.688 251.914C61.5388 252.064 61.151 252.362 60.7929 252.362C60.3454 252.362 60.3454 251.914 59.8978 252.362C59.4502 252.809 59.8978 252.362 59.4502 252.809C59.0922 253.167 58.7043 253.257 58.5551 253.257L58.1075 253.705L57.2124 254.152L56.7649 254.6L55.8698 255.047L55.4222 255.495L54.0795 256.39C54.0795 256.688 53.99 257.285 53.632 257.285C53.1844 257.285 53.1844 257.733 52.7369 257.733C52.3788 257.733 51.991 258.329 51.8418 258.628L51.3942 259.075L50.4991 259.523L50.0515 260.418L49.1564 261.313L48.2613 262.208L46.9186 263.103L45.1284 263.551C44.9792 263.7 44.5913 264.088 44.2332 264.446C43.8752 264.804 43.189 265.192 42.8906 265.341C42.7414 265.341 42.264 265.431 41.5479 265.789C40.8318 266.147 39.4593 266.236 38.8625 266.236C38.415 266.385 37.4304 266.684 37.0723 266.684C36.7143 266.684 35.7297 266.385 35.2821 266.236H33.4919H32.5968H31.2541H29.9114L28.5688 265.789L26.7786 264.893L25.4359 263.998L24.9884 263.103C24.9884 262.954 24.9884 262.566 24.9884 262.208C24.9884 261.85 24.9884 261.462 24.9884 261.313V259.97C24.9884 259.821 24.9884 259.433 24.9884 259.075C24.9884 258.717 24.9884 258.031 24.9884 257.733C24.8392 257.733 24.5408 257.643 24.5408 257.285C24.5408 256.927 24.2425 256.539 24.0933 256.39V255.942L23.6457 255.047C23.4965 254.898 23.1982 254.51 23.1982 254.152C23.1982 253.794 23.1982 253.406 23.1982 253.257L22.7506 252.809C22.6014 252.66 22.3031 252.272 22.3031 251.914C22.3031 251.467 22.7506 251.019 22.3031 250.572C21.945 250.214 21.8555 249.826 21.8555 249.677V249.229V248.781C22.0047 248.632 22.2135 248.334 21.8555 248.334C21.4975 248.334 21.4079 248.035 21.4079 247.886L20.9604 246.991L20.5128 246.096V245.649L20.0653 244.753C19.9161 244.753 19.6177 244.664 19.6177 244.306C19.6177 243.948 19.6177 243.56 19.6177 243.411L19.1701 242.516C19.0209 242.516 18.7226 242.426 18.7226 242.068C18.7226 241.71 18.4242 241.621 18.2751 241.621V241.173L17.8275 240.278C17.5291 240.129 16.9324 239.741 16.9324 239.383C16.9324 239.025 16.634 238.637 16.4848 238.488L15.5897 237.592L14.6946 236.697L13.7995 235.355L12.9044 234.46L12.0092 233.564L11.1141 232.669L10.219 231.774L9.77145 230.879L8.4288 229.984L7.53372 229.089L7.08615 228.194L6.19101 227.299L5.29587 226.404L4.40079 225.061L3.95325 224.166L3.50571 223.271L3.05814 221.928L2.6106 220.138L2.16299 219.243L1.71545 218.348V217.005V215.662V213.872L1.26788 212.082V210.739V208.501V206.711V205.816C1.1187 205.816 0.909838 205.726 1.26788 205.368C1.62593 205.01 1.71545 204.622 1.71545 204.473L2.16299 203.578V202.683C2.16299 202.683 2.16299 202.594 2.16299 202.235C2.16299 201.877 2.46141 201.49 2.6106 201.34V200.893L3.05814 199.998V199.55V199.103L3.50571 198.207V197.76V197.312V196.865C3.35652 196.865 3.14766 196.775 3.50571 196.417C3.86375 195.701 3.95325 194.925 3.95325 194.627H4.40079L4.84836 193.732L5.29587 192.837H5.74344L6.19101 191.942V191.494C6.3402 191.643 6.63858 191.852 6.63858 191.494C6.63858 190.778 6.93697 190.599 7.08615 190.599V190.151L7.53372 189.256C7.68291 189.406 7.98126 189.614 7.98126 189.256C7.98126 188.898 8.27962 188.51 8.4288 188.361V187.914L8.87637 187.466C8.72719 187.317 8.51833 187.019 8.87637 187.019C9.23442 187.019 9.32388 186.72 9.32388 186.571L9.77145 186.123L10.219 185.228L10.6666 184.333H11.1141L12.0092 183.438L12.4568 182.543L13.3519 182.095L13.7995 181.648L14.6946 180.753L15.5897 179.858L16.0373 179.41L16.9324 178.515L17.3799 177.62L18.2751 176.725L19.1701 175.83L20.0653 175.382L20.9604 174.934L21.4079 174.039L22.3031 173.592L23.1982 172.697L24.5408 171.802L26.7786 171.354L28.1212 170.906L29.4639 170.459L30.359 170.011L31.2541 169.564L32.1492 169.116M90.3317 249.229L90.7793 248.334V247.886V246.991V246.096L90.3317 245.649L89.8842 245.201L88.989 244.306V243.411L88.5415 242.963V242.068H88.0939L87.6464 241.173V240.725L87.1988 240.278L86.7513 239.383V238.935L86.3037 238.04L85.8561 237.592L85.4086 236.697L84.9611 235.802L84.5135 235.355L84.0659 234.46L83.6184 233.564L83.1708 232.669L82.7232 231.327L82.2757 230.432L81.8281 229.536L81.3806 228.641L80.933 227.299L80.4855 226.851L80.0379 225.508V224.613C80.0379 224.464 79.9484 224.076 79.5904 223.718C79.2323 223.36 78.8444 222.376 78.6952 221.928C78.546 221.779 78.2477 221.391 78.2477 221.033C78.2477 220.675 78.2477 220.287 78.2477 220.138L77.8002 219.243L77.3526 218.348L76.9051 217.9L76.4575 217.452V216.557L75.5623 216.11V215.215L75.1148 214.767L74.6672 213.872L74.2197 212.977L73.7721 211.634V210.739L73.3245 209.844L72.877 208.949L72.4294 208.054L71.9819 207.159L71.5343 206.263L71.0868 205.368L70.6392 204.026L70.1917 203.131L69.2965 201.788L68.849 200.445L68.4014 199.55L67.9539 198.655L67.5063 197.76V197.312L67.0587 196.417L66.6112 195.522L66.1636 195.075L65.7161 194.179V193.284L65.2685 192.389L64.821 191.942L64.3734 191.047L63.9258 190.151V189.704L63.4782 188.809V187.914V187.019L63.0307 186.123V185.676V184.781L62.5831 183.438V182.543V181.648V181.2V180.753V180.305V179.858V179.41V178.515C62.5831 178.515 62.5831 178.425 62.5831 178.067C62.5831 177.709 62.5831 177.321 62.5831 177.172V176.725L62.1356 176.277L62.5831 175.382L62.1356 174.487V174.039V173.592V172.697C62.1356 172.697 62.1356 172.607 62.1356 172.249C62.1356 171.891 62.1356 171.503 62.1356 171.354V170.906V170.459M32.1492 169.116L31.2541 168.221L30.359 167.774L29.4639 167.326L28.1212 166.878L27.2261 165.983L25.8835 165.536L24.0933 164.641L23.1982 163.746L21.8555 163.298L20.5128 162.403L19.6177 161.955L18.2751 161.06L17.8275 160.613L16.9324 160.165L16.4848 159.718L15.5897 159.27L14.6946 158.822L14.247 158.375L13.7995 157.927L12.9044 157.48L12.4568 157.032L12.0092 156.585L11.5617 156.137L10.6666 155.69L10.219 154.794L9.77145 154.347L9.32388 153.899L8.87637 153.452L8.4288 153.004L7.98126 152.557L7.53372 152.109L7.08615 151.662L6.63858 151.214L6.19101 150.319L5.74344 149.424V148.529V147.634V146.291V145.396V144.501V144.053V143.605L6.19101 143.158V142.71L6.63858 141.815V140.92L7.08615 140.473L7.53372 139.577L7.98126 138.682L8.4288 137.787L8.87637 136.892L9.32388 136.445L9.77145 135.997L10.6666 135.102L11.1141 134.207L11.5617 133.759L12.0092 132.864L12.4568 132.417L13.3519 131.521L13.7995 131.074L14.6946 130.179L15.1422 129.284L15.5897 128.389L16.4848 127.493L16.9324 126.598L17.3799 126.151L17.8275 125.703L18.2751 124.808V123.913L18.7226 123.018L19.1701 122.123V121.228V120.333V119.437V118.99L19.6177 118.542V117.2V115.857L20.0653 114.962V114.067V113.172V112.276L19.6177 110.934L19.1701 110.039V108.696L18.7226 107.801C18.7226 107.652 18.7226 107.264 18.7226 106.906C18.7226 106.548 18.7226 106.16 18.7226 106.011L18.2751 105.116L17.8275 104.22L17.3799 103.325L16.9324 102.878L16.4848 101.535L16.0373 100.64L15.5897 99.7449L15.1422 98.8498L14.6946 97.9547L14.247 97.5071L13.7995 97.0595L13.3519 96.1644L12.9044 95.2693L12.4568 94.3742L11.5617 93.4791L11.1141 92.584L10.219 91.6889L9.77145 91.2413L9.32388 90.7938L8.87637 90.3462L8.4288 89.8986L7.98126 89.4511L7.53372 89.0035L7.08615 88.556L6.63858 88.1084L6.19101 87.2133L5.29587 86.3182L4.84836 85.8706L3.95325 84.9755L3.50571 84.528L3.05814 84.0804L2.6106 83.6328L2.16299 83.1853L1.71545 82.7377L1.26788 82.2902L0.820343 81.8426C0.820343 81.1265 0.820343 80.6491 0.820343 80.4999V79.6048C0.820343 79.6048 0.820343 79.5153 0.820343 79.1573C0.820343 78.7992 0.521958 78.4113 0.372772 78.2621V77.367V76.4719V75.5768V74.6817V74.2341V73.7866V72.8915V71.9964V71.5488V70.6537V70.2061V69.311V68.4159L0.820343 67.9683C0.969529 67.9683 1.26788 67.8788 1.26788 67.5208C1.26788 67.1627 1.26788 66.4765 1.26788 66.1781V65.7306L1.71545 65.283V64.3879L2.16299 63.9403L2.6106 63.4928L3.05814 62.5977L3.50571 61.7025L3.95325 60.8074L4.40079 59.4648L5.29587 58.5696L5.74344 58.1221L6.19101 57.6745L6.63858 57.227L7.08615 56.7794L7.53372 56.3319L7.98126 55.8843L8.4288 55.4367L8.87637 54.9892L9.32388 54.5416H9.77145L10.6666 54.0941L11.1141 53.6465L11.5617 53.199L12.4568 52.7514L12.9044 52.3038H13.7995L14.247 51.8563L15.1422 51.4087L16.0373 50.9612L16.9324 50.5136L17.8275 50.0661L19.1701 49.6185L20.0653 49.1709L21.4079 48.7234L22.7506 48.2758L23.6457 47.8283L24.5408 47.3807H25.4359H26.331L27.2261 46.9332L28.1212 46.4856H29.0163L29.9114 46.038C30.0606 46.038 30.4485 46.038 30.8066 46.038C31.1646 46.038 32.1492 45.7397 32.5968 45.5905H34.8346L36.1772 45.1429H36.6248H37.5199L38.415 44.6954L39.7577 44.2478H41.1003H41.9955H43.3381L44.2332 44.6954L44.6808 45.1429L45.5759 46.038L46.0235 46.9332L46.471 47.3807L47.3661 48.2758L48.2613 49.1709L48.7089 50.0661L49.1564 50.5136L49.604 51.4087L50.0515 52.3038L50.4991 52.7514L50.9466 53.199L51.3942 53.6465L51.8418 54.0941L52.2893 54.9892L52.7369 55.8843L53.1844 56.3319L53.632 56.7794L54.0795 57.227L54.5271 57.6745L54.9746 58.5696L55.4222 59.4648L55.8698 60.3599L56.7649 60.8074L57.2124 61.7025L57.66 62.1501L58.1075 63.0452L58.5551 63.9403L59.0027 64.8354L59.4502 65.7306L59.8978 66.6257L60.3453 67.5208L60.7929 68.8634L61.2404 69.7586L61.688 70.6537L62.1356 71.5488L62.5831 72.4439L63.0307 73.339L63.4782 74.2341L63.9258 75.1292L64.3734 76.0244L64.821 76.9195L65.2685 77.8146L65.7161 78.7097L66.1636 80.0524L66.6112 80.9475L67.0587 81.8426V82.7377L67.5063 83.6328L67.9539 84.528L68.4014 85.8706L68.849 87.2133L69.2965 88.556L69.7441 89.4511L70.1917 90.7938L70.6392 91.6889L71.0868 92.584V93.4791L71.5343 94.3742V95.2693L71.9819 96.1644V96.612L72.4294 97.9547V98.4022V98.8498L72.877 99.2973V99.7449V100.64V101.535V101.983L73.3245 102.878V103.773L73.7721 104.668V105.563L74.2197 106.458L74.6672 107.353V108.248V109.144L75.1148 109.591V110.486L75.5623 110.934V111.829L76.0099 112.724V113.172L76.4575 114.067V114.962L76.9051 115.409V115.857V116.752L77.3526 117.2L77.8002 117.647V118.542L78.2477 119.437V119.885L78.6952 120.78L79.1428 121.675V122.57L79.5904 123.018L80.0379 123.913L80.4855 124.361V125.256L80.933 125.703L81.3806 126.598L81.8281 127.493L82.2757 128.389L82.7232 129.284L83.1708 130.626L83.6184 131.521L84.0659 131.969L84.5135 132.864L84.9611 133.312L85.4086 134.207L85.8561 135.102L86.3037 135.997L86.7513 136.892L87.6464 137.787L88.0939 138.682L88.5415 139.577L88.989 140.025L89.4366 140.473L89.8842 141.368L90.3317 141.815L90.7793 142.71L91.2269 143.158L91.6744 144.053L92.122 144.501L93.017 145.396L93.9121 145.843L94.8073 146.291L95.7024 146.738L96.5975 147.186L97.4926 147.634M32.1492 169.116L32.5968 168.669H33.0443L33.9395 168.221H34.8346L35.7297 167.774H36.1772H37.9675H38.8625H39.7577H41.1003H41.9955L42.8906 167.326H43.3381H43.7857H44.2332H44.6808H45.1284H46.0235H46.471H46.9186H47.3661H47.8137H48.2613H49.1564L50.0515 167.774H50.9466H51.3942L52.2893 168.221H53.1844H53.632L54.0795 168.669H54.9746L55.4222 169.116H55.8698H56.3173L56.7649 169.564H57.66H58.1075H59.0027L59.8978 170.011H60.7929H61.2404L62.1356 170.459M97.4926 147.634L97.045 146.291L96.5975 145.396V144.501V143.605L96.1499 143.158L95.7024 142.263L95.2548 141.368L94.8073 140.473L93.9121 139.577V138.682L93.4646 137.787L93.017 136.892L92.5695 135.997L91.6744 135.102V134.654L91.2269 134.207L90.7793 133.312L90.3317 132.417L89.8842 131.521L89.4366 130.626L88.989 130.179L88.5415 129.284L88.0939 128.389L87.6464 127.493L87.1988 126.598L86.7513 126.151L86.3037 125.256L85.8561 124.361V123.465V122.57L85.4086 122.123L84.9611 121.228L84.5135 120.333V119.437L84.0659 118.99V118.095L83.6184 117.2V116.752L83.1708 116.305V115.409L82.7232 114.962V114.067L82.2757 113.619V112.724L81.8281 112.276V111.381L81.3806 110.934V110.039L80.933 109.144L80.4855 108.248V107.353V106.458V105.116V104.22C80.4855 104.071 80.4855 103.683 80.4855 103.325C80.4855 102.967 80.1871 102.579 80.0379 102.43L79.5904 101.535V100.64V99.7449C79.5904 99.7449 79.5904 99.6554 79.5904 99.2973C79.5904 98.9393 79.5904 98.5514 79.5904 98.4022V97.5071V97.0595V96.612V96.1644V95.7169C79.5904 95.3588 79.5904 94.971 79.5904 94.8218V94.3742L80.0379 93.9267V93.4791C80.0379 93.121 80.3363 92.7332 80.4855 92.584V92.1364V91.6889C80.4855 91.3308 80.4855 91.2413 80.4855 91.2413V90.7938V90.3462V89.8986V89.0035V88.556V88.1084H80.933V87.6609C81.2911 87.3028 81.3806 86.7657 81.3806 86.7657L81.8281 85.8706L82.2757 84.9755L82.7232 84.0804L83.1708 83.1853V82.7377V82.2902V81.8426L83.6184 81.3951L84.0659 80.9475L84.5135 80.0524V79.6048L84.9611 79.1573H85.4086L85.8561 78.7097V78.2621L86.3037 77.8146V77.367L86.7513 76.9195V76.4719L87.1988 76.0244V75.5768L87.6464 75.1292C87.6464 74.6817 87.6464 75.1293 87.6464 74.6817C87.6464 74.3236 87.9447 73.9358 88.0939 73.7866L88.5415 72.8915V71.9964L88.989 71.5488L89.4366 71.1012V70.6537L89.8842 70.2061V69.7586V69.311L90.3317 68.8634V68.4159V67.5208V67.0732V66.6257L90.7793 66.1781V65.7306V65.283L91.2269 64.8354V64.3879V63.9403V63.4928C91.2269 63.1347 91.5252 63.0452 91.6744 63.0452C91.6744 62.6872 91.6744 62.5977 91.6744 62.5977V62.1501V61.7025V61.255V60.8074L92.122 59.9123V59.0172L92.5695 57.6745V57.227V56.7794C92.5695 56.7794 92.5695 56.6899 92.5695 56.3319C92.5695 55.9738 92.5695 55.5859 92.5695 55.4367L93.017 54.5416V53.6465V53.199V52.7514V52.3038L93.4646 51.8563V51.4087C93.4646 51.4087 93.4646 51.3192 93.4646 50.9612C93.4646 50.5136 93.4646 50.9612 93.4646 50.5136C93.4646 50.1556 93.4646 49.7677 93.4646 49.6185C93.4646 49.6185 93.4646 49.529 93.4646 49.1709C93.4646 48.8129 93.4646 48.425 93.4646 48.2758L93.9121 47.8283V46.9332V46.4856V45.5905V45.1429V44.6954V44.2478V43.8003V42.9051L94.3597 42.01V41.1149L94.8073 40.2198V39.7722C94.8073 39.7722 94.8073 39.6827 94.8073 39.3247C94.8073 38.9666 95.1056 38.5788 95.2548 38.4296C95.1056 38.2804 94.8968 37.982 95.2548 37.982C95.7024 37.982 95.2548 37.982 95.7024 37.5345C96.0604 37.1764 96.1499 36.7885 96.1499 36.6393V36.1918L96.5975 35.7442L97.045 35.2967V34.8491C96.8958 34.6999 96.687 34.4016 97.045 34.4016C97.4031 34.4016 97.4926 34.4016 97.4926 34.4016V33.954L97.9402 33.5064V33.0589L98.3877 32.6113L98.8353 32.1638L99.2828 31.7162V31.2687C99.6409 30.9106 100.029 30.5227 100.178 30.3735V29.926L100.626 29.4784L101.073 29.0309L101.521 28.5833H101.968V28.1357H102.416V27.6882H102.863L103.311 27.2406L103.758 26.7931H104.206V26.3455H104.654L105.101 25.898L105.549 25.4504L105.996 25.0029L106.444 24.5553L106.891 23.6602L107.786 23.2126L108.682 22.7651L109.129 22.3175L109.577 21.87L110.024 21.4224L110.472 20.9748H110.919L111.814 20.5273H112.262V20.0797L112.71 19.6322L113.605 19.1846H114.052L114.5 18.7371H114.947L115.395 18.2895H115.842H116.29L116.738 17.8419H117.185H117.633L118.528 17.3944H119.423L119.87 16.9468H120.318L121.213 16.4993L121.661 16.0517H122.108H122.556L123.003 15.6041H123.451H123.898H124.346H124.794L125.241 16.0517V16.4993L125.689 16.9468L126.136 17.3944V17.8419V18.2895L126.584 18.7371V19.1846L127.031 19.6322V20.0797L127.479 20.5273V20.9748H127.926C128.285 20.9748 128.672 20.9748 128.822 20.9748H129.269C129.627 21.3329 130.015 21.4224 130.164 21.4224L130.22 21.3664M97.4926 147.634L97.9402 148.081L98.3877 148.976L98.8353 149.424L99.2828 150.319L100.178 150.766L100.626 151.214V151.662L101.073 152.109L101.521 152.557L101.968 153.004L102.416 153.452L103.311 154.347L103.758 154.794L104.206 155.69L104.654 156.585L105.101 157.032L105.996 157.927L106.444 158.375V158.822L106.891 159.27V159.718V160.165V160.613V161.06V161.508H106.444H105.996H105.101H103.758H103.311H102.863H102.416H101.968H101.521H100.178H99.2828H98.3877H97.4926H97.045H96.1499H95.7024H94.8073H94.3597H93.9121H93.017L92.122 161.955H91.2269H90.7793H90.3317H89.4366L88.989 162.403H88.5415H88.0939L87.6464 162.85H87.1988L86.3037 162.403H85.8561L85.4086 161.955H84.9611V161.508H84.5135L84.0659 161.06L83.1708 160.613L82.7232 160.165H82.2757V159.718H81.8281H81.3806L80.933 159.27H80.4855V158.822L80.0379 158.375H79.5904H78.6952H78.2477L77.8002 157.927H77.3526V157.48H76.9051H76.4575H76.0099L75.5623 157.032H75.1148H74.6672V156.585H73.7721L72.877 156.137H72.4294H71.9819H71.0868H70.6392H70.1917H69.2965L68.849 155.69L67.9539 156.137L66.6112 155.69V156.137L66.1636 157.032L65.7161 157.927L65.2685 158.375V158.822V159.718L64.821 160.165L64.3734 161.508L63.9258 161.955V162.403V163.746L63.4782 164.641V165.536L63.0307 166.431V166.878V167.326V167.774V168.221L62.5831 168.669V169.564L62.1356 170.011V170.459M190.137 33.954V33.5064V33.0589L189.689 32.6113V31.7162V31.2687V30.8211V30.3735V29.926V29.0309L189.242 28.5833V28.1357V27.2406V26.7931V26.3455V25.898V25.4504C189.242 25.4504 189.242 25.3609 189.242 25.0029V24.5553V24.1077V23.6602H188.794V23.2126L188.347 22.3175C188.347 22.3175 188.347 22.228 188.347 21.87C188.347 21.5119 188.347 21.4224 188.347 21.4224V20.9748V20.5273V20.0797V19.6322V19.1846H187.899L188.347 18.2895L187.899 17.8419L187.452 17.3944V16.9468V16.4993H187.004V16.0517V15.6041V15.1566C187.004 15.1566 186.915 14.6195 186.557 14.2615C186.199 13.9034 186.407 13.8139 186.557 13.8139V13.3664L186.109 12.9188V12.4712L185.662 12.0237V11.5761L185.214 11.1286L184.766 10.681V10.2335L184.319 9.78591V9.33835H183.871V8.89079H183.424V8.44324H182.976V7.99568H182.529V7.54812H182.081V7.99568H181.634L181.186 8.44324L180.738 8.89079H180.291L179.843 9.33835L179.396 9.78591H178.948V10.2335H178.501V10.681H178.053L177.606 11.1286L177.158 11.5761L176.71 12.0237L176.263 12.4712H175.815L175.368 12.9188L174.92 13.8139H174.473L174.025 14.2615L173.577 14.709H173.13H172.682C172.682 14.8582 172.593 15.1566 172.235 15.1566C171.877 15.1566 171.787 15.1566 171.787 15.1566V14.709V14.2615L170.892 14.709H170.445V14.2615H169.997L169.549 13.8139L169.102 13.3664L168.654 12.9188L168.207 12.4712V12.0237V11.5761L167.759 11.1286V10.681L167.312 10.2335L166.864 9.78591V9.33835L166.417 8.89079V8.44324L165.969 7.99568V7.54812V7.10056H165.521V6.65301C165.521 6.65301 165.521 6.5635 165.521 6.20545C165.521 5.8474 165.223 5.75789 165.074 5.75789V5.31034V4.86278L164.626 4.41522V3.96766L163.731 3.07255L163.284 2.62499V2.17744H162.836V1.72988H162.389V1.28232H161.941V0.834764H161.493L161.046 0.387207H160.598H159.703H158.808H157.913H157.018H155.675H154.78H154.333H153.885L153.437 0.834764H152.542L151.647 1.28232H151.2L150.752 1.72988L149.857 2.17744L149.409 2.62499L148.962 3.07255H148.514H148.067V3.52011H147.619L147.172 3.96766L146.724 4.41522L146.276 4.86278L145.829 5.31034L145.381 5.75789L144.934 6.20545H144.486L144.039 6.65301L143.591 7.10056L143.144 7.54812L142.696 8.44324L142.248 8.89079H141.801V9.33835L141.353 9.78591H140.906V10.2335L140.011 10.681L139.563 11.1286L139.116 11.5761L138.668 12.0237L138.22 12.4712L137.773 12.9188L137.325 13.3664V13.8139L136.878 14.2615H136.43V14.709H135.983V15.1566L135.535 15.6041L135.087 16.0517L134.64 16.4993V16.9468H134.192V17.3944L133.745 17.8419L133.297 18.2895H132.85V19.1846H132.402L131.954 19.6322L131.507 20.0797L131.059 20.5273L130.612 20.9748L130.22 21.3664M190.137 33.954L189.689 34.4016H189.242L188.347 33.954L187.899 34.4016H187.004L186.557 34.8491V35.2967H186.109L185.662 35.7442V36.1918H185.214L184.319 36.6393V37.0869H183.871L183.424 37.5345H182.976L182.529 37.982H182.305M190.137 33.954H190.631H191.072H191.514H191.926H192.486H192.781H193.193L193.487 34.2066L193.811 34.4016L194.106 34.6189H194.341L194.724 35.0018L195.019 35.2079H195.343L195.784 35.5613L196.138 35.8264L196.432 36.1503L196.756 36.3859H197.08L197.581 36.7393M130.22 21.3664L130.612 21.4224L131.507 21.87H131.954L132.85 22.3175H133.297L134.192 22.7651H135.087H135.983H137.325H138.22L140.458 23.2126H141.801H142.248L143.144 22.3175L143.591 21.4224L144.039 21.3664L144.934 22.3175L145.829 22.7651L146.276 23.6602V24.5553L146.724 25.0029V25.4504V26.3455L147.172 26.7931V27.6882V28.1357V29.0309V29.4784V30.3735V30.8211C147.022 30.8211 146.813 30.9106 147.172 31.2687C147.53 31.6267 147.619 32.0146 147.619 32.1638L147.172 32.6113V33.5064M147.172 33.5064V33.954V34.4016L146.724 34.8491L147.172 35.2967C147.022 35.2967 146.724 35.3862 146.724 35.7442C146.724 36.1918 146.276 36.1918 146.724 37.0869M147.172 33.5064C147.172 34.9983 147.082 37.803 146.724 37.0869M146.724 37.0869L147.619 36.1918V35.7442L148.514 34.8491L148.962 34.4016L149.409 33.5064L150.304 33.0589H150.752L151.2 32.6113L151.647 32.1638L152.542 31.7162L153.437 31.2687L153.885 30.8211L154.78 30.3735H155.228L156.123 29.4784L157.018 29.0309L157.465 28.5833H158.361L159.256 27.6882L159.703 27.2406L160.598 26.7931L161.493 26.3455L162.389 25.898H162.836H163.731L164.179 25.4504H164.626L165.074 25.0029H166.417L167.088 24.4434M146.724 37.0869V38.8771V39.7722V40.2198V40.6674V41.1149V41.5625V42.01V42.4576V43.3527V44.2478V44.6954V45.1429V45.5905V46.038V46.4856L146.276 46.9332V47.8283V49.1709L145.829 49.6185V50.5136V50.9612L145.381 51.4087V52.3038V52.7514V53.199C145.232 53.199 144.934 53.2885 144.934 53.6465C144.934 54.0046 144.934 54.3924 144.934 54.5416V55.4367V56.3319V57.6745V58.1221V58.5696V59.0172V60.3599V60.8074V61.7025V62.5977V63.4928L144.486 64.8354V65.7306L144.934 67.0732L144.486 67.5208V68.4159V69.7586V70.6537L144.934 71.5488L145.381 72.4439L145.829 73.339L146.276 73.7866L146.724 74.2341H147.619M166.864 24.5553L167.088 24.4434M167.088 24.4434L167.759 24.1077H168.207H169.102H169.997H170.892L171.34 23.6602L171.787 24.1077H172.235H172.682H173.13H173.577H174.025H174.473L174.92 24.5553H175.368H175.815L176.263 25.0029C176.263 25.152 176.352 25.4504 176.71 25.4504C177.158 25.4504 177.158 25.4504 177.158 25.898C177.158 26.256 177.158 26.3455 177.158 26.3455H177.606L178.501 26.7931C178.501 26.9423 178.59 27.2406 178.948 27.2406C179.306 27.2406 179.097 27.539 178.948 27.6882V28.1357L179.396 28.5833L179.843 29.0309V29.4784V30.3735H180.291V31.2687V31.7162L180.738 32.1638V32.6113L181.186 33.5064V33.954V34.4016V34.8491V35.2967V35.7442V36.1918V36.6393L181.634 37.0869V37.5345L182.081 37.982H182.305M147.619 74.2341L148.067 73.339L148.514 72.8915V72.4439L148.962 71.9964V71.5488L149.409 71.1012V70.6537V70.2061L149.857 69.7586V68.8634L150.304 68.4159V67.9683L150.752 67.5208V67.0732V66.6257L151.2 66.1781L151.647 65.283L152.095 64.3879L152.542 63.0452V62.5977L152.99 62.1501V61.7025L153.437 60.8074V60.3599L153.885 59.9123V59.4648V59.0172L154.333 58.5696V57.6745L154.78 57.227L155.228 56.3319L155.675 55.8843V55.4367L156.123 54.9892L156.57 54.0941L157.018 53.199H157.465L157.913 52.7514L158.361 52.3038V51.4087L159.256 50.5136L159.703 49.6185H160.151L160.598 48.7234H161.046V48.2758H161.493L161.941 47.3807H162.389L163.731 46.4856H164.179L165.074 46.038L165.521 45.5905H166.864L167.312 45.1429L168.207 44.6954H168.654H170.445M147.619 74.2341L148.067 75.5768V76.0244L148.514 76.4719L148.962 77.367L149.409 77.8146H149.857L150.304 78.2621L149.857 78.7097L150.304 79.1573L151.2 79.6048V80.0524L151.647 80.4999V80.9475L152.095 81.3951L152.542 81.8426L152.99 82.2902V82.7377L153.437 83.1853L153.885 84.0804H154.333L155.228 84.528M170.445 44.6954H171.34M170.445 44.6954H172.235H173.13H173.577L174.473 45.1429L175.368 45.5905L175.815 46.038L176.263 46.4856H177.606L177.158 47.3807H178.053L178.948 47.8283H179.396H180.291M180.291 47.8283V46.9332V46.4856L180.738 46.038V45.5905V45.1429L181.186 44.2478V43.8003V42.9051V42.01L181.634 41.5625V40.6674V39.7722V38.8771V38.4296L182.305 37.982M180.291 47.8283L180.738 48.7234L181.186 49.1709V50.0661L181.634 50.5136V50.9612L182.081 52.3038L182.305 52.7514L182.081 53.6465H183.424L182.976 54.0941L184.319 54.5416V54.9892L184.766 55.4367L185.214 55.8843H186.109V56.3319H187.004L187.452 56.7794H187.899H188.794L189.689 57.227H190.137H190.585H191.032H191.48H191.927L192.375 57.6745L192.822 58.1221V58.5696H193.27L193.717 59.0172H194.165V59.4648H194.613V59.9123L195.06 60.3599V60.8074H195.508V61.255H195.955V61.7025H196.403V62.1501H196.85V62.5977H197.298H197.746V63.0452L198.193 63.4928M155.228 84.528L155.675 83.6328L156.123 83.1853L156.57 82.7377L157.018 82.2902H157.465L157.913 81.3951C158.062 81.5442 158.361 81.7531 158.361 81.3951C158.361 81.037 158.659 80.6491 158.808 80.4999L159.703 80.0524V79.6048L160.151 79.1573L161.046 78.2621L161.941 77.367L162.389 76.9195L162.836 76.4719L163.284 76.0244L163.731 75.5768V75.1292H164.179L164.626 74.6817L165.074 74.2341L165.969 73.7866V73.339H166.417L166.864 72.8915H167.312L167.759 72.4439L168.207 71.9964L168.654 71.5488H169.102V71.1012L169.997 70.6537L170.892 70.2061L171.34 69.7586L171.787 69.311L172.235 68.8634H173.13L174.473 68.4159L174.92 67.9683H175.815H176.263L177.606 68.4159L178.501 67.9683L178.948 68.4159H179.843H180.738L181.634 68.8634L182.081 69.311L184.319 69.7586L184.766 70.2061H185.214H185.662H186.109L186.557 70.6537L187.452 71.1012H187.899L188.347 71.5488L188.794 71.9964H189.242L189.689 72.4439L190.137 72.8915H190.585H191.032V73.339L191.48 73.7866L192.375 74.2341L193.27 74.6817V75.1292H193.717L194.165 75.5768L194.613 76.0244H195.06L195.508 76.4719L195.955 76.9195H196.403V77.367L196.85 77.8146L197.298 78.2621L197.746 78.7097H198.193L198.641 79.1573L199.088 79.6048L199.536 80.0524H199.983V80.4999H200.431L200.878 80.9475L201.326 81.3951H201.774V81.8426H202.221L202.669 82.2902V82.7377L203.564 83.1853H204.011L204.459 83.6328L204.906 84.0804L205.354 84.528L205.802 84.9755H206.249V85.4231C206.249 85.5723 206.339 85.8706 206.697 85.8706C207.055 85.8706 207.144 86.169 207.144 86.3182L207.592 86.7657L208.039 87.2133H208.487L208.934 87.6609L209.83 88.1084M155.228 84.528L154.78 84.9755L154.333 85.4231H153.885L153.437 86.3182L152.99 87.2133L152.542 87.6609L152.095 88.556L151.647 89.0035L151.2 89.8986L150.752 90.3462L150.304 90.7938L149.409 91.2413L148.962 92.1364L148.514 92.584V93.0315H148.067L147.619 93.4791V94.3742L147.172 94.8218L146.724 95.2693L145.829 95.7169L144.934 97.5071L143.591 98.8498L142.248 100.192L141.353 101.535L140.011 102.43L138.668 104.22L137.325 105.116L136.43 106.906L135.535 108.248L134.64 109.144L133.745 110.486L133.297 111.381L132.85 111.829C132.85 111.978 132.85 112.366 132.85 112.724C132.85 113.082 132.85 113.172 132.85 113.172L132.402 113.619L131.954 114.514V115.409V116.305L131.507 116.752L131.059 117.647L131.507 118.542V119.437V120.333L131.059 121.228V123.018L130.612 123.913V125.256V126.151L131.059 127.046L130.612 128.389V128.836V130.179V131.521V131.969V132.864V133.759V134.207V135.102V135.549V136.445L131.059 136.892L130.612 137.787V139.13L131.059 140.025V140.92L130.612 141.815L131.059 142.71L131.507 144.053L131.059 145.396L131.507 146.291L131.954 147.186V148.081L131.507 148.529V149.871L131.954 150.319V151.662V152.557V153.004V153.899L132.402 154.794V155.242V155.69V156.585V157.48L132.85 158.375V158.822V160.165V161.06L133.297 161.508V162.403V162.85L133.745 163.746L133.297 164.641V165.088L133.745 165.983V166.878L134.192 167.774V168.669V169.564V170.459V171.802V173.144V173.592V174.039V174.487V175.382L133.745 177.172M209.83 88.1084H210.725L211.172 87.6609L212.067 87.2133H212.515L212.962 86.7657L213.858 86.3182V85.8706L214.305 84.9755L214.753 84.528L215.2 83.6328L215.648 83.1853L215.2 82.2902V81.3951L215.648 80.9475L214.753 80.0524L214.305 79.1573V78.2621V77.8146C214.454 77.6654 214.574 77.4566 213.858 77.8146C213.141 78.1726 212.664 78.2621 212.515 78.2621H211.62H210.725L209.83 77.8146C210.128 77.6654 210.456 77.4566 209.382 77.8146C208.308 78.1726 207.741 77.9638 207.592 77.8146H207.144L206.697 77.367L205.354 76.9195L204.906 76.4719L204.011 76.0244H203.564L203.116 75.5768L202.221 74.6817L201.326 74.2341M209.83 88.1084V88.8002L210.464 89.4601V90.0184L210.725 90.9828V92.0995L211.172 93.2669V94.1805L211.632 94.9927L212.067 96.1601V97.226L212.515 98.1397L212.962 99.1548V100.17L213.858 101.642V102.911M201.326 74.2341L200.878 73.7866L199.536 73.339V72.4439L199.088 71.9964L198.641 71.1012V70.2061V69.7586V68.8634V68.4159V67.9683V67.5208L198.193 66.6257V66.1781L197.746 65.283V64.3879V63.9403L198.193 63.4928M201.326 74.2341L202.221 73.7866V73.551L202.669 73.339L202.854 72.9803L203.116 72.6236H203.564V72.4439L204.011 72.1955L204.281 71.9964H204.459L204.906 71.6961L205.354 71.4464L205.637 71.1012L206.249 70.8756L207.144 70.5546H207.592L207.92 70.2061H208.74L209.382 69.7586H209.989L210.452 69.4488H210.725L211.273 69.1277H211.844H212.272H212.515L213.199 68.8634L213.858 68.6283L214.519 68.4159H215.2H215.91L216.659 68.4143L217.087 67.6652L217.622 67.1658H218.621H219.192H219.941H220.333M198.193 63.4928L199.088 63.0452H199.536L199.983 62.5977H200.431L200.878 62.1501L201.326 61.7025L202.221 61.255L202.669 60.8074L203.116 60.3599H203.564V59.9123L204.459 59.4648L204.906 59.0172H205.354L206.249 58.5696L207.144 58.1765L207.92 57.8554L208.74 57.5701L209.632 57.3204L210.452 57.1063L211.273 56.8566H212.272H213.377L214.127 57.1063L214.753 57.5701L215.648 57.8554L216.089 58.1765L216.659 59.0172L217.337 59.4648L217.622 59.6747L217.836 59.9123V60.3599L218.372 60.8074L218.871 61.255L219.406 61.8863L219.941 62.4214V63.0452L220.333 63.4928V63.9403L220.548 64.3879V65.283L220.797 65.9529V66.6257L220.333 67.1658M106.891 158.822L107.339 159.27V159.718L107.786 160.165V160.613L108.234 161.06V161.508L108.682 161.955H109.129V162.403H109.577L110.024 162.85H110.919L111.814 163.298L112.71 163.746L113.157 164.193H113.605L114.052 164.641H114.947L115.395 165.088L116.29 165.536H116.738L117.185 165.983L118.08 166.431H118.528L119.423 166.878L119.87 167.326L120.766 167.774L121.661 168.669H122.556L123.003 169.116L123.898 169.564L124.346 170.011L125.241 170.459L126.136 170.906L126.584 171.354L127.031 171.802L127.926 172.249H128.374L129.269 173.144L129.717 173.592L130.164 174.039L130.612 174.487L131.507 174.934L131.954 175.382L132.402 175.83L132.85 176.277L133.745 176.725V177.172M133.745 177.172L134.853 177.67L135.389 178.207L135.772 178.551L136.232 179.049L136.577 179.777L137.075 180.352L137.956 181.157L138.607 182.114L139.335 182.804L139.948 183.494L140.791 184.068L141.289 184.528L141.672 185.256L142.324 185.869H143.55L144.699 186.175L145.503 186.673L146.844 187.21L147.726 187.708L148.722 188.091L149.794 188.666L150.905 189.509L151.787 190.275L152.936 191.003L153.587 191.654L154.507 192.305L155.311 193.072L155.963 193.685L156.614 194.451L157.495 195.677L157.878 196.29L158.453 197.248L159.219 197.975L159.564 199.01L159.909 200.006L160.483 201.002L160.79 202.037L161.365 203.224L161.901 204.642L162.476 205.676L162.744 207.209L162.974 208.435L163.318 209.622V211.423L163.778 212.917L164.008 214.258V215.292V216.097V217.208V218.166L163.778 219.468L164.966 218.166L165.847 217.208L166.652 216.097L167.456 215.292L168.414 214.028L169.18 213.147L170.138 212.113L170.904 211.423L171.939 210.58L173.05 210.044L173.739 209.622L175.157 209.163L175.961 208.435L177.187 208.779H178.184H179.065L179.793 209.163L180.521 209.622L181.555 210.044L182.321 210.887L183.394 211.691L184.122 212.342L185.386 213.147L186.306 213.645L187.148 214.258L187.876 214.756L188.566 215.292L189.459 215.847L189.916 216.189H190.373L190.945 216.818L191.573 217.332L192.316 217.732L192.944 218.132H193.573L194.259 218.475H195.001H195.401L196.544 218.932H197.115H197.801H198.83H199.458H200.429H201.115L201.629 218.475H202.086L202.601 218.132L203.401 217.732H204.143H204.886H205.686H206.6H207.572H208.257H208.829L209.743 218.132L210.771 218.475L211.514 218.932L212.143 219.275L212.771 219.846L213.685 220.932L214.257 221.675L214.771 222.303L215.514 222.932L215.971 223.503L216.485 224.189L216.999 224.989L217.399 225.96V226.417L217.856 226.931L218.313 227.56V228.302L219.056 228.874V229.445L219.913 230.074L220.77 230.931L221.285 231.788L222.084 232.588L222.884 233.616L223.627 234.188L224.313 234.759L224.941 235.559L225.97 236.302L226.77 236.816L227.741 237.787L228.427 238.187L228.941 238.873L229.569 239.387L230.712 240.301L231.912 240.987L232.826 241.558L233.569 241.901M143.144 282.796V283.243M143.144 282.796L144.441 283.005V283.243L145.376 283.406L146.15 283.691L147.324 284.1L148.098 284.34L149.059 284.82L150.154 285.034L151.221 285.648L152.236 285.929L153.49 286.555L154.585 287.009L155.625 287.271L156.773 287.719H157.627L158.401 287.863L159.442 288.237L160.056 288.397L160.724 288.611L161.364 288.984H162.165L162.645 289.171L163.233 289.465L164.06 289.865H164.594H165.074L165.635 290.132L166.302 290.292H166.916H167.423L168.438 290.639L169.292 290.773H169.932L170.466 291.013H170.813H171.48L172.415 291.387H173.029H173.536L174.256 291.627L175.03 291.84H175.644H176.125H177.086L177.94 292H178.981H179.66H180.443L181.156 292.089H181.536H182.353H182.779L183.193 292.181L183.722 292.307H184.194H185.299H186.127L187.036 292.181H187.876L188.59 292.089M188.658 292.089L190.367 292.01L191.583 291.819L192.595 291.614M192.595 291.614L193.552 291.34L194.427 291.108L195.862 290.944L196.765 290.807L197.612 290.67L198.077 290.328L198.692 289.768L199.866 289.531L201.317 289.332L202.158 289.111L203.104 288.827L203.956 288.543L205.06 288.091L205.712 287.765L206.438 287.502L206.9 287.029L207.174 286.682L208.624 286.37L210.104 285.866L211.325 285.426L212.431 284.841L213.131 284.222L213.879 283.848L215.034 283.311L215.929 282.628L216.547 282.058L217.491 281.277L218.06 280.789L218.874 280.301L219.589 279.764L221.054 279.016L222.307 278.105L223.706 277.112L224.682 276.103L225.398 275.404L226.374 274.753L227.041 274.086L227.92 273.158L228.847 272.41L229.709 271.596L230.328 270.767L230.897 270.116L231.467 269.644L232.687 268.554L233.533 267.529L234.331 266.748L235.063 265.82L235.779 264.877L236.544 264.014L236.983 263.25L237.748 262.566L238.431 262.013L239.212 261.069L239.863 260.37L240.693 259.605L241.327 259.345M192.595 291.614L192.832 292.181L193.178 292.84L193.552 293.602L193.835 294.432L194.147 295.055L194.631 295.989L195.254 297.028L195.635 297.927L196.154 298.793L196.569 299.762L197.088 300.661L197.612 302.15L198.438 303.361L199.096 304.71L199.58 306.199L199.822 306.545L200.134 306.925L200.549 307.444V308.033V308.829V309.798V310.421V311.355V312.047V312.947V314.089V315.127V315.889L200.134 316.719L199.822 317.308L199.58 317.757L199.338 318.38L198.853 319.073L198.403 320.145L198.161 320.664L197.919 321.46L197.573 322.118L197.192 322.879L196.915 323.572L196.327 324.402L196.016 324.99V325.925L195.531 326.998L195.185 327.932V328.728L195.531 329.282L195.808 329.801V330.32L196.016 330.77L196.915 331.808L197.573 332.846L197.919 333.331L198.473 334.265L199.338 335.65L199.857 336.342L200.584 337.691L201.968 339.56L203.145 340.875L204.045 342.294L205.117 343.921L205.983 345.34L206.571 346.516L207.332 347.728L207.955 348.87L208.855 350.081L209.443 351.361L210.101 352.711L210.585 353.818L211.208 354.614L211.797 355.549L212.177 356.31L212.766 357.279L213.215 358.075L213.804 359.494L214.323 359.979L214.738 360.567L215.5 361.017L216.226 361.813L216.676 362.436L217.195 363.024L217.922 363.335L218.614 363.889H219.272H220.206H220.968H221.763H222.559L223.528 363.543H224.117L224.809 363.335L225.19 363.024L225.882 362.678L226.539 362.193L227.162 361.813L227.647 361.432L228.2 361.017L228.927 360.567L229.516 360.152L230.277 359.494H230.761L231.281 359.217L232.111 358.733L232.63 358.421L233.253 358.144L234.118 357.625L234.43 357.314H234.811H235.503L236.541 357.141L237.579 356.518H238.41L239.206 356.276H239.656H240.452H241.767L242.77 356.829L243.705 357.141H244.293L245.193 357.418H246.162L247.2 357.798L247.927 358.006L249.069 358.214L249.761 358.525L250.453 358.767H251.318L252.149 358.525L253.049 358.767L253.983 359.356H254.917H256.129H257.236H257.894H258.793H259.797H260.766H261.7H262.808L264.019 359.044L264.988 358.525H265.853L266.58 358.006L267.584 357.591L268.034 357.141L268.553 356.829L269.21 356.241H269.868L270.664 356.552L271.391 356.829H272.187L272.879 357.141H273.502L274.125 357.452L274.609 357.764L275.094 358.283L275.543 358.698L276.028 359.113L276.547 359.736L276.928 360.29L277.412 360.913L277.897 361.363L278.45 362.055L278.831 362.436L279.419 362.955L279.939 363.474L280.631 364.131L280.838 364.374L281.461 365.135L282.084 365.793L282.949 366.589L283.261 367.073L283.711 367.661L284.23 368.077L284.853 368.665L285.614 369.323V369.565L286.272 370.153L286.998 370.914L287.448 371.33L287.933 371.78L288.521 372.264L289.006 372.749L289.629 373.302L290.459 374.077H290.944L291.255 374.251H292.501H293.159L293.712 374.077H294.543H295.823L296.926 374.251H297.674H298.612L299.621 374.077L300.873 373.764L302.211 373.521L303.394 373.173L304.819 372.165L305.532 371.73L306.349 371.191L307.045 370.617L307.584 370.218L308.331 369.696L308.853 369.209L309.34 368.688L309.896 368.096L310.574 367.279L311.339 366.253L311.913 365.61L312.4 364.897L313.078 364.185L313.739 363.228L314.156 362.602L314.677 361.89L315.112 360.985L315.616 360.307L316.086 359.177L316.416 358.499L317.042 357.595L317.459 356.639L317.79 355.439L317.876 354.361L318.016 354.118L318.311 353.648L318.763 352.97L319.146 352.362L319.285 351.771L319.685 351.249L319.911 350.571L320.311 350.015L320.589 349.406L321.11 348.641L321.545 348.207L321.823 347.528L322.136 347.059L322.71 346.52L323.058 345.929L323.336 345.599V344.799V343.929V343.06L323.058 342.173L322.64 341.078L322.327 340.557L321.788 339.757L321.44 339.235L321.11 338.244L320.206 337.427L319.962 336.575L319.528 335.532L318.641 334.228L318.328 334.002L317.911 333.185L317.371 332.455L316.589 331.585L316.119 330.942L315.754 330.281L314.885 329.586L314.259 328.751L313.634 327.986L312.921 327.395L312.33 326.561L311.808 326.022L311.321 325.465L310.747 324.909L310.139 324.109L309.722 323.327L309.252 322.492L308.835 322.162L307.948 321.449L307.218 320.614L306.158 319.606L305.219 318.772L304.349 317.833L303.688 317.016L302.854 316.25L302.054 315.312L301.341 314.651L300.576 313.869L299.794 313.017L299.342 312.356L298.629 311.626L297.742 310.583L296.908 309.487L296.038 308.809L295.152 308.044L293.83 306.914L292.457 305.784L291.726 304.915L290.527 303.906L289.814 302.88L288.736 301.629L288.11 301.194L287.276 300.585L286.441 299.907L285.659 298.951L284.703 298.134L283.642 297.108L283.068 296.448L282.182 295.474L281.243 294.761L280.426 293.996L279.661 293.353L278.844 292.709L278.131 291.91L277.54 291.266L276.705 290.484L275.923 289.789L275.28 289.319L274.654 288.641L273.715 287.685L272.984 287.024L272.515 286.572L271.854 285.842L271.228 285.32L270.55 284.555L269.664 284.034L269.003 283.164L267.925 282.434L267.178 281.791L266.413 281.078L265.648 280.226L264.865 279.444L264.414 278.755L263.959 278.625L262.983 277.926L262.429 277.372L261.062 276.429L260.346 275.697L259.354 274.655L258.915 274.346L258.329 273.809L257.727 273.175L257.434 272.8L257.125 272.329M241.327 259.345L242.189 259.605L242.775 259.979L243.474 260.484L244.321 261.232L245.199 261.932L245.981 262.859L246.68 263.298L247.445 263.982L248.503 264.747L249.04 265.349L249.804 265.885L250.683 266.829L251.236 267.529L251.984 268.049L252.602 268.538L253.416 268.993L254.034 269.253L254.555 269.481L254.864 269.579L255.482 270.295L256.133 271.125L256.507 271.792L257.125 272.329M241.327 259.345V258.414V257.9V257.1V256.014V255.1V254.471V253.5V252.643V251.5L240.997 250.7L240.693 249.729L239.863 249.158L239.568 248.472L239.212 247.729L238.431 246.929L237.748 246.358L236.983 245.901L236.544 244.929L235.779 244.129L235.063 243.615L234.331 242.987L233.569 241.901M257.125 272.329L258.915 271.792L261.062 272.053L262.983 272.329L263.959 272.8L266.129 273.809M266.129 273.809H267.925L269.003 274.108L270.55 274.346H272.233H273.715L274.348 274.655H275.923L277.54 275.135H279.661H281.243L283.068 275.697H284.703H286.133H287.276H288.736H290.303H292.539H294.11L295.863 275.135L297.253 275.697H298.582L299.731 275.135H300.637H301.544H302.753L303.417 274.655H304.263L305.584 274.468L306.988 274.26L308.315 273.947H309.823L311.747 273.713L313.126 273.453L314.478 273.245L315.805 272.933L317.053 272.621L318.431 272.413L319.732 272.153L321.032 271.867L322.384 271.555L323.581 271.373L324.543 270.957L325.219 270.514L327.43 269.968L330.239 269.188L332.111 268.616L333.073 268.356L334.114 267.992L334.686 267.628L335.752 267.368L336.35 267.03L336.896 266.717L337.573 266.327L338.301 265.859L339.185 265.287L339.783 264.949L340.537 264.455L341.396 263.961L342.15 263.233L342.748 262.738L343.45 262.088L344.152 261.49L345.115 260.918L345.869 260.476L346.311 259.852L347.351 259.149L348.105 258.447L349.172 257.355L350.004 256.393L350.862 255.3L351.668 254.39L352.553 253.142L353.307 252.232L354.113 251.347L354.945 250.125L355.856 248.59L356.61 247.602L357.234 246.302L357.754 245.626L358.378 244.741L358.609 243.722M266.129 273.809L267.178 275.697L268.243 276.429L269.003 277.372L270.55 278.218L271.228 279.444L271.979 280.057L272.892 280.785L273.884 281.435L274.654 282.225L275.448 282.922L276.068 283.464L276.594 283.945L277.183 284.471L277.926 285.153L278.499 285.71L279.274 286.392L279.924 286.918L280.699 287.43L281.365 288.003L281.814 288.282L282.356 288.641L282.991 289.226L283.642 289.676L284.339 290.171L284.804 290.636L285.377 291.163L285.841 291.581L286.29 292.169L286.987 292.696L287.53 293.161L288.18 293.641L288.784 294.074L289.543 294.353L290.256 294.942L291.077 295.608L291.789 296.274L292.502 296.832L293.059 297.343L293.679 297.683L294.159 298.024L294.825 298.272L295.537 298.783L296.188 299.341L296.715 299.852L297.164 300.255L297.628 300.657L298.047 301.076L298.775 301.354L299.425 301.773L300.215 302.346L300.835 302.779L301.516 303.259L302.182 303.709L302.848 304.189L303.607 304.53L304.149 304.839L304.846 305.242L305.404 305.614L306.055 305.97L306.705 306.435L307.433 306.806L308.084 307.256L308.719 307.612L309.276 307.86L309.865 308.293L310.531 308.696L311.29 309.006L312.08 309.207L312.668 309.471L313.303 309.827L313.846 310.245L314.481 310.508L314.992 310.772L315.658 311.097L316.246 311.407L316.819 311.763L317.501 312.197L318.059 312.336L318.601 312.568L319.267 312.708L320.119 313.002L320.754 313.296L321.389 313.529L321.962 313.916L322.628 314.21L323.247 314.396L323.913 314.613L324.704 314.721L325.586 315L326.314 315.171L327.12 315.264L327.786 315.387H328.855H329.536H330.434H331.766L333.3 315.294L334.136 315.496H335.422L336.088 315.387L336.847 315.124L337.977 314.954L339.089 314.717L339.719 314.457L340.37 314.175L340.803 313.763L341.172 313.372L341.866 313.047L342.279 312.352L342.778 312.07L343.19 311.311L343.516 310.768L343.69 309.51L343.885 308.534V308.056L344.058 307.34L344.861 306.494L345.49 305.757L346.12 305.106L346.532 304.585L347.053 303.891L347.552 303.305L348.225 302.524L348.984 301.829L349.83 301.092L350.589 300.571L351.197 299.898L352.542 299.139L353.713 298.206L354.646 297.599L355.557 296.948L356.512 296.253L357.445 295.559L358.291 295.104L359.246 294.323L360.461 293.628L361.719 293.086L362.782 292.413L363.867 291.697L365.169 291.046L366.405 290.439L367.425 289.918L368.38 289.332L369.508 288.638L371.461 288.096L372.155 287.749L373.088 287.51L373.652 286.989L374.433 286.555L374.911 286.1L375.475 285.535L375.953 285.036L376.604 284.277L377.168 283.431L377.775 282.628L378.188 281.717L378.556 281.066L378.882 280.22L379.294 279.374L380.053 278.441L380.292 277.595L380.639 276.64L380.856 275.881L381.594 275.034L381.919 274.232V273.364L382.093 272.93L382.353 271.693L382.592 270.76L382.983 269.806L383.199 268.721L382.983 266.877V266.161V264.902L382.592 263.882L382.093 262.884L381.572 261.886L380.683 260.65L379.88 259.803L378.947 259.044L377.775 258.328L377.971 257.352L378.318 256.224L378.708 255.573L378.947 254.553L379.294 253.88V253.143L379.62 252.405V251.754V250.843V249.867V249.281V248.478L379.294 247.523L379.077 246.525L378.491 245.723L377.971 244.941L377.472 244.508L376.951 243.813L376.213 243.141L375.541 242.533L374.933 241.709L374.412 241.123L373.588 240.689L372.655 240.081L371.505 239.496L370.507 239.127L369.249 238.736L367.969 238.324L367.036 238.107L365.907 237.782L365.04 237.565L364.085 237.304L363.065 237.196L362.479 236.957L362.176 236.784M362.176 236.784L361.807 237.782L361.373 238.324L361.264 239.257L360.744 240.081L360.375 241.123L359.832 241.709L359.442 242.533L359.008 243.358L358.609 243.722M362.176 236.784L363.065 235.749V234.533L364.085 233.577V232.621L365.04 231.492V230.362L365.907 229.233V227.842L367.036 226.539V225.236V224.019L367.969 222.716V221.76V220.63L368.501 219.588V218.632V217.937H367.036H366.24H365.444H364.609H363.774H363.018H362.263H361.587H360.95H360.155H359.479H358.842L358.047 217.644H357.212L356.734 217.206L356.337 216.729L355.859 216.212L355.303 215.894L354.945 214.9L354.587 214.621V213.428L354.388 212.633V211.241L354.149 210.724L353.871 210.087L353.632 209.332V208.457L353.235 207.741L352.837 206.985V206.15L352.558 205.434L352.201 204.519L351.803 203.525V202.69V202.213L351.445 201.536L351.127 200.94V200.304L350.689 199.627V198.991L350.172 198.235V197.559L349.814 197.042L349.615 196.366V195.889L349.257 195.412V194.696V194.134L348.675 193.677V192.935L348.268 192.591V191.844L347.724 191.22V190.69L346.842 189.735L346.502 189.049L346.095 188.382V187.849H345.756L345.28 187.092V186.65L344.805 186.277V185.792L344.194 185.123V184.764L343.719 184.241L343.38 183.766V183.223L342.769 182.679L342.361 182.136V181.797M358.509 243.813L358.609 243.722M233.569 241.901L234.331 240.987L235.063 240.473L235.779 240.13L236.544 239.787L237.748 239.501L238.431 239.216L239.212 238.93L240.197 238.644L241.054 238.359H241.968L242.825 237.73H243.625L244.882 237.044L246.082 236.645H247.168L247.625 236.302L248.482 236.016H249.225L249.967 235.559H250.539L251.339 235.102L251.967 234.816H252.653L253.51 234.245H254.367L255.053 233.902H255.681L256.367 233.273L257.224 232.931L258.138 232.531L259.338 232.131L260.366 231.788L261.166 231.331H262.023L262.995 230.874L264.08 230.359L264.88 230.074L266.023 229.331L266.88 228.874L267.68 228.417H268.423L269.165 227.674L269.851 227.331H270.822L271.679 226.531L272.422 226.017L273.508 225.617L274.536 224.817L275.793 223.903L276.593 223.217L277.907 222.589L279.222 222.017L280.307 221.046L281.164 220.36L282.536 219.446L283.45 218.989L284.25 218.189L284.935 217.504L285.45 216.989L286.192 216.247L286.992 215.504L287.792 214.704L288.421 214.018L288.935 213.333L289.563 212.533L289.906 211.961L290.478 211.447V210.99L291.163 210.19L291.735 209.39L292.077 208.59L292.706 207.733V206.99L293.106 206.19V205.219L293.392 204.305V203.276L293.792 202.134V200.934V199.734V199.048L293.392 198.077V196.706L293.106 195.506L292.706 194.134L292.077 192.935L291.735 191.22L291.163 189.735L290.478 189.049L289.563 187.849L288.421 186.65V185.792M288.421 185.792L287.506 184.764L286.478 183.793L285.45 182.364L284.935 181.621L284.25 180.936L283.45 180.25L282.536 179.393L282.193 178.65L281.164 177.736L280.755 176.776L280.414 175.525V174.388V173.308L280.016 172.057V171.148V169.613V168.589L280.755 167.339L281.164 166.486L281.494 165.462L281.892 164.837L282.536 163.245V162.165L283.45 160.232L284.25 158.868V157.787L284.678 156.878V155.854V154.717V153.353V152.273V151.136L284.25 150.112L283.45 148.805L282.193 147.668L281.494 146.928L281.164 145.905L280.414 144.939L279.391 144.2L278.652 143.176L277.515 142.039L276.776 141.016L275.923 139.594L275.07 138.685L274.274 137.718L273.251 136.468L272.455 135.444L271.375 134.478L270.124 133.113L269.044 132.374L268.361 131.749L267.395 130.384L266.656 129.588L265.576 128.849L264.723 128.167L263.927 127.314L262.96 126.689L262.335 126.007L261.027 125.154L260.231 124.301L259.379 123.619L258.128 122.652L256.934 121.8L255.911 120.947L254.546 120.151L253.409 119.753L251.931 119.241L250.964 118.616L250.055 118.332L248.292 117.763L247.155 117.251H245.961L244.654 116.683H243.687H242.835H241.641H239.992H238.571L237.547 117.251H236.41L235.614 117.763L234.022 118.332L233.056 118.616H232.317L231.35 119.241H230.441L229.304 119.753L228.28 120.151H227.371H226.12L224.983 120.947H223.864H222.951L222.088 120.625H221.326L220.413 120.151L219.601 119.753L218.992 119.241L218.484 118.616V117.763L217.976 116.869V116.26L217.57 115.347V114.738L217.164 113.773V113.113L216.809 112.149V111.286L216.251 110.525L215.946 109.56L215.642 108.545L215.236 107.631V106.515L214.677 105.652V104.332L213.858 102.911M288.421 185.792L288.935 184.764V184.241L289.906 183.223L290.478 182.679H291.163L292.077 182.136L293.106 181.39L293.792 180.982L294.296 180.575L294.907 180.1L295.518 179.421H296.197L296.74 179.013L297.351 178.47L298.302 177.791L298.981 177.384L299.795 176.909L300.882 176.502H301.493L302.104 175.823L302.647 175.415L303.733 174.94H304.615L305.43 174.261H305.973L306.856 173.854L307.535 173.379H308.146H308.757L309.775 172.632H310.725L311.744 172.089L312.49 171.681H313.101L314.052 171.342H314.799L315.885 170.935H316.564H317.107H317.922H318.532H319.279H319.822H320.433H321.044H321.995H322.742L323.556 171.342H324.439H325.389L326.34 171.681H327.29L328.105 172.089H328.648H329.327L330.277 172.632H331.024L331.839 173.379H332.382L332.993 173.854L333.739 174.261L334.283 174.94H334.894L335.369 175.415H335.708L336.319 175.823L336.93 176.502L337.541 176.909L337.949 177.384L338.56 177.791L339.103 178.47L339.782 179.013L340.325 179.421L340.8 180.1L341.207 180.575M213.858 102.911L215.2 102.552H215.648H216.445L216.809 102.338L218.015 101.874L219.121 101.642L220.012 101.125L220.655 100.697L221.511 100.34H222.26L222.652 100.126L223.33 99.8768L223.972 99.6627L224.471 99.306L225.078 98.985H225.613L225.934 98.8066L226.291 98.6283L226.826 98.2359L227.396 98.0218L228.074 97.6295H228.502L228.823 97.4154L229.251 97.2014L229.465 96.9874L230.143 96.6306L230.892 96.3809L231.606 96.1669L232.391 95.8459L233.104 95.3108L233.996 94.9541L234.602 94.5974H235.173L235.815 94.0266L236.35 93.7056L236.707 93.4202L237.313 93.2062M237.313 93.2062L237.92 92.8494L238.526 92.4571L239.275 91.9933L239.882 91.6723L240.524 91.2442L241.13 90.7091L241.665 90.3167L242.236 90.0314L242.593 89.7103L242.949 89.3536L243.342 88.8899L243.734 88.4261L244.127 87.4987L244.626 86.6425L244.804 86.1075V85.6794V85.5011V85.0373L244.626 84.6449V84.4666L244.127 83.9315L243.342 83.3607L242.985 83.004L242.521 82.576L241.951 82.0409L241.308 81.6842L240.595 81.3275L239.703 80.8637L239.275 80.6497L238.526 80.4713L237.741 80.1146H237.171L236.635 79.5439H235.993L235.458 79.2228L234.709 78.9731H233.996H233.461L233.817 78.2597L233.996 77.5819L234.21 76.9755V76.2621L234.495 75.62V75.1919V74.3001V73.8007V73.1586L234.21 72.6592L233.996 71.8031L233.817 71.054L233.461 70.2692L232.676 69.5558L232.176 69.0207L231.855 68.4143L231.606 67.9149L231.249 67.1658L230.75 66.702M237.313 93.2062L237.741 94.0266L237.92 94.5974L238.327 94.9541L238.555 95.3108L238.911 95.8459L239.275 96.3809L239.703 97.0031L240.484 97.6365L240.86 97.9776L241.28 98.27L241.951 98.7085H242.593M230.75 66.702L229.572 67.4155H228.609H227.896H226.826H226.112H225.435L224.864 67.1658L224.043 67.4155H223.615L222.866 67.1658H222.01H221.297H220.333M230.75 66.702L231.249 66.1288L231.805 65.3724L232.154 65.0141L232.733 64.6558H233.776H234.819L235.746 64.4567H236.441H237.816H238.555L239.29 64.6558L240.484 64.815L241.28 65.0141L241.957 65.3724H242.873L243.868 65.8103H244.744L245.58 66.1288H246.376L247.451 66.4871L248.048 66.702H248.645L249.521 67.1658L250.238 67.4155L250.755 67.1658L251.233 66.702M197.581 36.7393L197.993 37.0633L198.376 37.4167L198.582 37.6229L198.788 37.7701L199.142 38.0646L199.466 38.418L199.79 38.6831L200.025 38.9776L200.379 39.2721L200.791 39.6549L201.086 39.9789L201.439 40.3323L201.881 40.833L202.175 41.2747L202.529 41.5987L202.882 42.0404L203.147 42.5116L203.353 42.9534L203.648 43.2184H204.001H204.62H205.091H205.591L206.269 43.4835H206.769H207.417H208.124H208.86L209.597 43.2184H210.127H210.804L211.187 43.4835H211.54H212.041H212.483H213.013L213.543 43.2184H214.014H214.753H215.648L216.397 42.9533H216.889H217.41H217.845H218.54H219.206L219.757 42.6636M197.581 36.7393L197.993 36.1503L198.229 35.5613L198.376 35.3552L198.788 35.2079L199.142 34.7073L199.466 34.0888L199.79 33.7354V33.5587L200.025 33.1758L200.379 32.8813L200.555 32.5868L200.791 32.3512L201.086 32.1745L201.439 31.7917L201.733 31.5561L202.175 30.9965L202.529 30.702H202.705L202.882 30.3781L203.265 30.1719L203.589 29.9068L203.913 29.7007L204.119 29.524L204.561 29.1411L205.002 28.7583L205.503 28.5521L205.974 28.4049L206.504 28.0515L207.035 27.8453L207.476 27.6686L208.095 27.433L208.654 27.1385L209.361 26.844L209.891 26.6673L210.745 26.3728L211.217 26.1961L211.864 26.0194H212.277L212.807 25.8132H213.307H213.808L214.279 25.6365H214.868H215.487L215.958 25.4893H216.488H216.93H217.254H217.607L218.078 25.342H218.579H218.991H219.492H219.757H220.169H220.464H220.7H221.436H221.848H222.319H222.702H223.291L223.703 25.666L224.351 25.8132L224.911 25.9605H225.353L225.942 26.1372L226.707 26.3433H227.208H227.768L228.357 26.52L229.093 26.6967L229.918 26.8734L230.507 27.0502H231.125L231.714 27.433H232.215L232.863 27.6686H233.481H234.041L234.453 27.9042L234.983 28.1693H235.366H235.808L236.308 28.4343L236.868 28.5816H237.31L237.692 28.935H238.164L238.576 29.2295H239.106L239.43 29.4062H239.901L240.402 29.5829H240.961H241.815L242.287 29.7596H242.699H243.111H243.524H243.995H244.26L244.613 29.9363H244.967H245.644H246.351H246.94H247.617H248.03H248.648H249.325H249.826H250.474H251.151H252.005H252.506H252.83H253.655H254.273H254.744H255.274H255.834H256.246L256.688 30.1425L257.13 30.437L257.571 30.7904L258.072 31.1732L258.779 31.8506L259.044 32.3218L259.28 32.6752L259.515 33.0286L259.898 33.3231L260.193 33.6765L260.369 34.2361L260.723 34.884L260.87 35.1785L261.017 35.4435L261.253 35.738L261.547 36.1209L261.753 36.6805L261.93 36.975L262.254 37.4756L262.608 38.0057L262.961 38.418L263.138 38.8598L263.314 39.331L263.52 39.7433L263.815 40.3618L264.109 40.9802V41.3631L264.492 41.8932L264.787 42.3644L265.052 42.6589L265.435 43.189L265.7 43.6308V43.9547L265.877 44.3376V44.6615L266.318 45.28L266.466 46.0162L266.76 46.4874L266.966 46.8703L267.29 47.371H267.467M267.467 47.371V47.5771M267.467 47.371L267.673 48.3112L268.124 49.3285V50.0632L268.654 50.7415L269.026 51.5892V52.1544L269.477 52.7761L269.984 53.3413L270.35 53.9065L271.055 54.5282V55.2064L271.957 55.602V56.1672L272.52 56.7324L273.084 57.0715L273.591 57.5802L274.155 57.9193L274.719 58.4845L275.21 58.8801L275.733 59.2757L276.071 59.7279L276.691 60.067L277.48 60.4626L278.213 60.7452H278.601L278.946 61.2539H279.566L280.073 61.6495H280.299H280.806L281.426 62.1017H282.049L282.671 62.4408H283.236H283.801L284.366 62.8364H285.157H285.779H286.514H287.249L287.87 63.1755H288.605H289.114H289.792H290.131L290.753 63.4581H291.261H291.883H292.448H292.957H293.522H294.257H294.935H295.387H296.065H296.744H297.309H297.874L298.609 63.7972L299.174 64.0798L299.739 64.5885H300.361L301.039 65.0971H301.717L302.339 65.8319L302.961 66.3971L303.413 66.8492L303.752 67.4144L304.317 67.9231L304.713 68.4317L305.052 68.9404L305.504 69.4491L305.843 69.96L306.182 70.5447V71.3707V71.8031V72.6592V73.4054L306.408 73.8007V74.6488V75.1574V75.7226V76.4008V77.0225V77.5877V78.3225V78.6051V79.1702V80.1146L306.182 80.6497V81.3275V82.2941L305.843 82.576L305.504 83.07V83.3607V84.1881L305.843 85.0373L306.408 85.6794V86.009L307.03 86.6425L307.426 87.3654L307.934 87.7938L308.217 88.4261V88.8899L308.613 89.7103V90.3167V90.9313L308.984 91.6723V92.4571V93.7145V94.3049V95.3108V96.2447V97.2467V97.9776V99.0909V100.275M219.757 42.6636V42.0843V41.5629L219.93 41.0416V40.5781L220.394 40.1726V39.825L220.886 39.5354L221.205 39.1009L221.466 38.6954L222.045 38.2899L222.248 38.0581L222.74 37.7395L223.377 37.5368L223.812 37.1312L224.015 36.9864H224.42H225.115H225.608H225.984H226.419L226.882 36.8416H227.259H227.635H228.07H228.562L229.026 36.9864L229.315 37.334L230.01 37.5368L230.619 38.0581L231.082 38.2899H231.603L232.154 38.4347L232.733 38.6954L233.197 39.1009H233.776L234.355 39.3036L234.819 39.5354H235.427L235.948 39.825H236.441L236.991 40.1726L237.512 40.3754H238.179L238.555 40.5781H239.29H239.887H240.484H241.28H241.957H242.554L243.35 40.1726L243.868 39.825H244.346L245.022 39.3036H245.58L246.057 38.8978L246.376 38.6954L246.893 38.4347L247.451 38.0581L248.048 37.7831H248.645H249.123H249.8L250.476 38.0581L251.233 38.6954L251.75 38.8978L252.308 39.3036L252.825 39.825L253.502 40.3754L253.98 41.0875L254.458 41.8837L254.657 42.6003V43.2771V43.715L254.816 44.3436V45.1084V45.7919V46.4002V46.7767V47.4971V48.1739L254.657 49.1229V49.6732L254.458 50.2043V50.9209V51.1505L253.98 52.0356V52.5929V53.2299V54.0261L253.741 54.8001V55.3215L253.502 56.1325V56.6935L253.223 57.3703V58.1765L252.825 58.7394V59.6747L252.308 60.3599V60.8737V61.6301L251.75 62.1875V62.8245V63.4928L251.551 64.0984V64.6558L251.233 65.3724V66.1288V66.702M219.757 42.6636L220.481 42.9533L221.06 43.2184H221.639L222.306 43.7353L223.261 43.996L224.072 44.3436L224.826 44.894L225.463 45.3284L225.955 45.7919L226.274 46.0236L226.737 46.4002L227.259 46.7767L227.751 47.2691L228.33 47.7905L228.823 48.5436L229.257 49.1229L229.663 49.6732L230.184 50.5712L230.445 51.1505L230.763 51.7008L230.937 52.425V53.0043L231.43 53.5546V54.2787V54.8001V55.3215V56.1325V56.8566V57.5701V58.1765V58.7394V59.6747V60.3599V61.255V61.8863V62.4214V63.0452V63.4928M251.233 66.702L252.214 67.1658H252.798L253.334 67.4155H254.114L255.186 67.7186H255.771H256.696H257.281L258.645 67.9149H259.425H260.156H260.692L261.813 68.1571H262.738L263.323 68.4143H264.005L264.639 69.0207L265.029 69.5558L265.662 69.96L266.247 70.5447V71.054L266.734 71.8031V72.6592M242.593 98.7085H242.985L243.342 98.27L244.127 97.6365L244.626 97.2467L245.1 96.7594L245.58 96.1669L246.376 95.6387V95.3108L247.097 94.9541L247.731 94.5974L248.048 94.0266L248.645 93.4202L249.193 93.2062L249.521 92.8494L250.238 91.9933L250.508 91.6723L250.755 91.2442L251.551 90.3167L252.214 90.0314L252.798 89.3536L253.334 88.4261L253.822 87.7938L254.65 87.4987L255.186 87.0629L255.771 86.6425L256.258 86.1075L256.696 85.6794L257.281 85.5011L257.72 85.0373L258.207 84.6449L258.645 84.1881L259.133 83.9315L259.425 83.3607L260.156 82.576L260.692 82.0409L261.374 81.6842L261.813 80.6497L262.202 80.1146M242.593 98.7085V99.5982V100.275L242.835 100.951L243.342 101.402H244.127H244.626H245.58H246.376L247.097 100.951H247.731H248.292H248.645L249.521 100.275H250.238L250.964 99.9364L251.551 99.5982H252.214H253.074L253.822 99.0909H254.65L255.498 98.7085L256.258 99.0909H256.696L257.72 99.5982L258.207 99.9364L258.645 100.275L259.133 100.951H259.425L260.156 101.74L260.692 102.473V103.206L261.374 103.995V104.671V105.686V106.418V107.038L261.813 107.884M262.202 80.1146L262.738 79.2228L263.323 78.2597L264.005 77.5819L264.249 76.6842L264.639 76.0021L265.029 75.1919L265.662 74.3001L266.247 73.8007L266.734 72.6592M262.202 80.1146L263.323 79.814H263.727H264.005H264.639L265.024 80.1146H265.306H265.757H266.264H266.94L267.673 80.4713L268.124 80.6497L269.026 80.8637L269.477 81.3275L269.984 81.6842L271.055 82.2941V82.576L271.957 83.3607L272.52 83.9315V84.1881L273.084 85.0373L273.591 85.6794L274.155 86.6425L274.719 87.7938V88.4261L275.733 88.8899H276.071H276.691L277.48 88.4261L278.213 88.8899H278.946H279.566L280.073 88.4261M266.734 72.6592H268.124H269.026H269.477H270.491L271.506 72.9826H272.52L273.591 73.4054L274.719 73.8007H275.733H276.691L277.48 74.3001H278.213L278.946 74.6488L279.566 75.1919L280.299 75.4734L281.426 76.0021H281.764L282.046 76.6842L282.61 77.0225L283.004 77.5877L283.807 77.9641V78.6051L284.349 79.2228V80.1146V80.6497L283.807 81.3275V82.2941V82.576L283.59 83.3607L283.004 83.9315V84.1881L282.61 85.0373L282.368 85.6794L282.046 86.009L281.764 86.6425H281.426L281.093 87.3654L280.806 87.7938L280.073 88.4261M261.813 107.884H262.202L262.738 107.546L263.323 107.038L264.005 106.7L264.249 106.418L264.639 105.686L265.306 105.066L265.757 104.671L266.264 103.995V103.487L266.94 103.206V102.924L267.673 102.473L268.124 102.078L268.575 101.74L269.026 101.402L269.477 100.951L269.984 100.275L270.491 99.9364L271.055 99.5982L271.506 99.0909L271.957 98.7085H272.52L273.084 98.27L273.591 97.9776L274.155 97.6365L274.719 97.2467H275.339L276.071 97.0031H276.691H277.48H278.213H278.946H279.566L280.299 97.2467L280.806 97.0031L281.426 96.7594H282.046H283.004M261.813 107.884V108.308V108.904V109.717V110.693V111.289V111.94V112.644V113.566V114.379L261.374 115.3V116.113L261.813 116.98V117.763M283.004 96.7594H283.342M283.004 96.7594L283.59 97.6365L283.807 97.9776L284.349 98.7085L284.837 99.0909L285.487 99.9364L285.921 100.275L286.68 100.951L287.493 101.74L288.143 102.078L288.902 102.473M283.342 96.7594L283.004 95.8459V95.3108L282.61 94.5974V94.0266L282.046 93.2062L281.764 92.4571L281.426 91.6723V90.7091L280.806 90.3167V89.7103L280.299 88.8899L280.073 88.4261M283.342 96.7594L284.104 96.5399L284.837 96.2447L285.487 95.8459L285.921 95.3108L286.355 94.5974L286.68 94.0266L287.005 93.4615L287.493 92.7868L287.764 92.4571L288.143 91.6723L288.363 90.9313L288.902 90.3167L289.333 89.7103L289.923 88.8899L290.345 88.4261L290.767 87.7938L291.526 87.0096L292.158 86.6425L292.707 86.2505L293.339 86.009H294.014L294.942 86.2505L295.363 86.6425V87.7938L294.942 88.8899V89.4554V90.3167V91.1844L294.731 92.4571V93.2062V94.0266V94.5974L294.562 95.3108V96.2447L294.309 96.7594V97.6365L294.014 98.7085V99.0909V99.6182V100.275V100.63L293.803 101.221V102.078M261.374 125.154V124.301V123.918V123.619V123.105V122.292V120.947V120.151L261.813 119.241V118.616V117.763M261.813 117.763L262.738 117.36H263.323L264.639 116.98H265.306H266.264L266.94 117.36H268.124H268.575H269.477L269.984 117.763H270.491H271.506H272.52L273.591 117.36H274.155H274.719H275.733H276.691L276.924 116.98H277.48L278.213 116.547L278.946 116.113H279.566L280.073 115.3L280.806 114.866H281.426L281.764 114.379L282.046 113.566L283.004 113.024L283.342 112.373L283.59 111.289L283.807 110.693V110.151L284.349 109.392V108.308L284.837 107.884L285.487 107.038L285.921 106.418L286.355 105.686L287.005 104.671L287.493 104.351L287.764 103.995L288.143 103.487L288.577 102.924L288.902 102.473M288.902 102.473H289.685H290.136L290.685 102.275H291.201L291.974 102.078H292.297H292.845H293.297H293.803M293.803 102.078L294.309 102.473H294.942L295.827 102.924L296.839 103.16L297.43 103.487L298.484 103.995L298.863 104.351L299.369 104.671L299.918 105.142H300.171L300.592 105.686L300.93 105.901L301.436 106.418H302.237L302.743 107.293L303.122 107.673M303.122 107.673L303.502 107.293L303.924 106.745L304.472 106.418L304.851 105.686L305.273 105.142L305.504 104.351L306.408 103.487L306.707 103.16L307.03 102.473L307.426 102.078L307.934 101.74L308.217 101.221L308.613 100.951L308.984 100.275M303.122 107.673L303.502 107.988V108.659V109.147L303.924 109.573L304.472 110.122L304.851 110.671L305.273 111.524L305.504 112.073L306.043 112.561L306.408 112.865L307.03 113.17L307.689 114.268L308.217 114.999L308.984 115.609H309.396L310.046 115.975L310.616 116.401H311.263H312.365H313.115H313.409H314.639H315.249L315.67 115.609H316.54L317.017 114.999H317.687L318.163 114.268L319.033 113.78L319.455 113.17L320.126 112.865L320.797 112.073H321.294L322.048 111.524V110.976L322.859 110.671L323.113 110.122H323.555L324.15 109.147L325.179 108.659L325.491 107.988L326.048 107.293H326.802L327.746 107.988L328.715 108.659L329.027 109.147L329.758 109.573L330.281 110.122L331.15 110.671L331.614 111.524L332.542 112.073L332.948 112.561L333.586 113.17L334.281 113.78L334.861 114.268L335.499 114.999L336.253 115.609L336.716 116.401L337.528 117.011L338.282 117.742L338.804 118.474L339.326 119.206L339.905 119.937L340.485 120.547L341.181 121.156L341.877 122.071L342.205 123.307L342.761 124.022L343.118 124.855L343.475 125.569L343.991 126.403L344.547 127.395L344.983 128.427L345.34 129.022L345.697 130.014L346.174 131.086L346.61 132.078L346.809 133.149L347.285 134.379L347.682 135.133L348.118 136.562L348.459 137.514L348.641 138.824V139.737L348.822 140.689L349.11 141.284V142.396V143.15V144.062V144.856V145.848V146.801V147.793L348.822 149.102V149.975V150.69V151.847L348.641 152.315V153.009V153.406V153.799V154.352L348.459 155.043V155.38V156.077L348.241 156.57V157.116V157.657V158.098V158.447L347.986 159.237L347.724 160.12V160.716V161.096L347.259 162.026V162.444V162.955V163.466L347.004 164.026V164.257L346.713 164.935V165.418L346.502 166.245L346.277 166.936V167.627L346.095 168.1L345.756 168.791V169.336L345.476 170.173L345.28 170.827V171.118L345.004 171.664L344.805 172.173V172.632L344.24 173.082V173.379L343.949 173.854V174.428V174.94L343.622 175.415V175.823L343.331 176.502L343.112 176.909L342.967 177.384L342.785 177.791L342.53 178.21L342.312 178.47V179.013L342.058 179.421H341.818L341.658 179.665L341.207 180.575M308.984 100.275H310.046H311.263L312.365 99.8212H313.409L314.336 99.4733H315.67L316.54 99.0909H317.351H318.163H319.033L319.786 98.7776H320.54H321.294L322.048 98.4877H322.859H323.555H324.425H325.179H326.048L326.802 98.7776H327.44L328.077 99.0909H328.715H329.411L330.281 99.4733H331.15H331.614H332.02L332.542 99.8212H332.948H333.586H334.281L334.861 100.275H335.499H336.253L336.716 100.633L337.528 100.951H338.282L338.804 101.221H339.326L339.905 101.74H340.485L341.181 102.078H341.877L342.456 102.473H343.152L343.732 102.778L344.428 103.16H345.239L345.819 103.487H346.399L346.979 104.054L347.733 104.351H348.544L349.24 104.749L350.052 105.142H350.458H350.863L351.327 105.686H351.965L352.685 106.038L353.16 106.445H353.669L353.94 106.716H354.28L354.687 107.226L354.924 107.633V108.006V108.447L355.128 108.889V109.262V109.533V109.805V110.144V110.585L355.467 110.789V111.128V111.434V111.705L355.671 112.079V112.452V112.656V112.927L355.943 113.402V113.844L356.214 114.251V114.522L356.52 114.896V115.439L356.859 115.914V116.525L357.063 116.796V117.237L357.368 117.645V118.018L357.64 118.459L357.911 118.663L358.081 119.036L358.25 119.409V119.579L358.522 120.02L358.963 120.326L359.201 120.767L359.506 121.208L359.744 121.615L359.947 121.921L360.321 122.192L360.626 122.396H360.999L361.441 122.702H361.882L362.289 122.905L362.798 123.075H363.307H363.715L364.461 123.584L364.868 123.889L365.174 124.331L365.411 124.636L365.649 125.111L365.853 125.349L366.124 125.824L366.396 126.299V126.571L366.769 126.978V127.453L367.074 127.826V128.132L367.482 128.437V129.014L367.753 129.353V129.693L367.923 130.066V130.44V130.813V131.288V132.049V132.746V133.257V133.768V134.279V134.93V135.627L367.753 136.185L367.482 136.789L367.234 137.626L366.769 138.509L366.351 139.159L366.072 139.671L365.654 140.321L365.235 140.879L364.863 141.53L364.445 142.087L364.12 142.645L363.655 143.11L363.051 143.668L362.447 144.132L362.075 144.69L361.61 145.434L360.959 146.27L360.541 147.2L360.169 147.943V148.548L359.705 149.617L359.379 150.174L359.054 151.011V151.847L358.822 152.498V153.009V153.799V154.543L358.496 155.38V156.077V156.82V157.657V158.447V159.237V160.12V161.096V162.026L358.822 162.444V162.955L359.054 163.466L359.379 164.257V164.768V165.418L359.624 166.245V166.936L359.952 167.627V168.536V169.082V169.554L359.624 170.173L359.054 170.827L358.496 171.3L358.206 172.173L357.588 172.632L357.115 173.854L356.533 174.261L356.06 174.719L355.733 174.94L355.151 175.823L354.824 176.065L354.351 176.502L353.805 176.909L353.078 177.791L352.496 178.756L351.514 179.421L350.641 179.665H350.241L349.768 180.1L349.077 180.575L348.241 180.982H347.724L346.502 181.265H345.756H345.28H344.805H343.949L343.38 181.447L342.361 181.797M342.361 181.797H341.818V180.982L341.207 180.575" stroke="white" stroke-width="0.5"/>
</svg>
